<?xml version="1.0" standalone="no"?>
<!DOCTYPE svg PUBLIC "-//W3C//DTD SVG 20010904//EN"
 "http://www.w3.org/TR/2001/REC-SVG-20010904/DTD/svg10.dtd">
<svg version="1.0" xmlns="http://www.w3.org/2000/svg"
 width="2000.000000pt" height="1500.000000pt" viewBox="0 0 2000.000000 1500.000000"
 preserveAspectRatio="xMidYMid meet">

<g transform="translate(0.000000,1500.000000) scale(0.100000,-0.100000)"
fill="#000000" stroke="none">
<path d="M9158 10727 l-837 -1452 839 -3 c462 -1 1218 -1 1680 0 l839 3 -837
1452 c-460 799 -839 1452 -842 1452 -3 0 -382 -653 -842 -1452z"/>
<path d="M2970 7505 l0 -1255 7030 0 7030 0 0 1255 0 1255 -7030 0 -7030 0 0
-1255z m13975 0 l0 -1180 -6945 0 -6945 0 -3 1170 c-1 644 0 1176 3 1183 3 10
1398 12 6947 10 l6943 -3 0 -1180z"/>
<path d="M3210 7505 l0 -1025 6790 0 6790 0 0 1025 0 1025 -6790 0 -6790 0 0
-1025z m2787 769 c15 -12 160 -253 347 -578 177 -307 326 -558 331 -558 5 0
154 251 331 558 249 434 328 564 354 582 67 45 164 18 202 -58 17 -32 18 -90
18 -762 l0 -728 -140 0 -140 0 0 455 c0 250 -3 455 -7 455 -5 -1 -120 -200
-258 -443 -272 -479 -277 -487 -359 -487 -81 0 -83 3 -360 487 l-256 448 0
-457 0 -458 -145 0 -146 0 3 733 c3 814 0 773 71 818 40 25 116 21 154 -7z
m-1037 -134 l0 -140 -310 0 -310 0 0 -635 0 -635 -140 0 -140 0 0 635 0 635
-310 0 -310 0 0 140 0 140 760 0 760 0 0 -140z m490 -635 l0 -775 -140 0 -140
0 0 775 0 775 140 0 140 0 0 -775z m3858 633 l3 -138 -566 0 -565 0 0 -455 c0
-503 0 -503 61 -524 22 -7 197 -11 550 -11 l519 0 0 -140 0 -141 -557 3 c-557
3 -558 3 -615 26 -81 33 -160 108 -200 190 l-33 67 -3 580 c-2 565 -2 581 18
613 11 18 34 41 52 52 32 20 49 20 683 18 l650 -3 3 -137z m1612 2 l0 -140
-497 0 c-464 0 -501 -2 -539 -19 -72 -33 -106 -118 -84 -211 13 -53 59 -105
103 -115 12 -2 193 -6 402 -8 367 -2 382 -3 444 -26 199 -71 311 -229 311
-439 0 -218 -145 -397 -358 -441 -35 -7 -244 -11 -617 -11 l-565 0 0 140 0
139 578 3 577 3 34 24 c40 29 70 91 71 146 0 54 -37 124 -79 152 -34 23 -37
23 -390 23 -197 0 -385 5 -421 11 -198 31 -345 179 -373 373 -36 250 103 465
336 522 38 9 190 13 560 13 l507 1 0 -140z m660 -175 l0 -315 490 0 490 0 0
315 0 315 140 0 140 0 0 -775 0 -775 -140 0 -140 0 0 315 0 315 -490 0 -490 0
0 -315 0 -315 -140 0 -140 0 0 775 0 775 140 0 140 0 0 -315z m1840 -92 c0
-233 5 -436 11 -473 30 -193 169 -331 375 -375 51 -11 140 -15 337 -15 l267 0
0 635 0 635 140 0 140 0 0 -722 c0 -704 -1 -724 -20 -756 -11 -18 -34 -41 -52
-52 -31 -19 -51 -20 -408 -20 -450 0 -500 7 -670 91 -88 44 -118 65 -186 134
-67 67 -90 98 -128 176 -79 163 -79 163 -83 687 l-4 462 140 0 141 0 0 -407z
m2783 387 c145 -45 225 -154 234 -317 6 -113 -15 -214 -64 -312 -35 -70 -36
-74 -17 -83 42 -23 123 -118 153 -180 43 -90 54 -153 49 -282 -3 -94 -8 -120
-29 -166 -33 -70 -89 -126 -159 -159 l-55 -26 -592 -3 c-655 -3 -644 -4 -683
60 -19 32 -20 49 -20 713 0 646 1 682 19 711 39 64 32 64 592 64 481 0 510 -1
572 -20z m-7023 -755 l0 -145 -445 0 -445 0 0 145 0 145 445 0 445 0 0 -145z"/>
<path d="M15300 7505 l0 -495 474 0 c418 0 476 2 490 16 20 19 22 128 4 188
-16 53 -81 118 -134 134 -29 8 -142 12 -383 12 l-341 0 0 145 0 145 285 0
c311 0 330 3 389 58 47 45 66 97 66 189 0 71 -3 84 -19 93 -13 6 -165 10 -425
10 l-406 0 0 -495z"/>
<path d="M6233 5658 c-27 -45 -404 -699 -839 -1452 l-792 -1371 2699 -3 c1485
-1 3913 -1 5398 0 l2699 3 -838 1450 -837 1450 -3721 3 -3722 2 -47 -82z"/>
</g>
</svg>
